<?xml version="1.0" encoding="utf-8"?>
<!-- Generator: Adobe Illustrator 16.0.0, SVG Export Plug-In . SVG Version: 6.00 Build 0)  -->
<!DOCTYPE svg PUBLIC "-//W3C//DTD SVG 1.1//EN" "http://www.w3.org/Graphics/SVG/1.1/DTD/svg11.dtd">
<svg version="1.1" id="Layer_1" xmlns="http://www.w3.org/2000/svg" xmlns:xlink="http://www.w3.org/1999/xlink" x="0px" y="0px"
	 width="600px" height="165px" viewBox="0 0 600 165" enable-background="new 0 0 600 165" xml:space="preserve">
<g>
	<path fill-rule="evenodd" clip-rule="evenodd" fill="#812A8F" d="M549.826,68.616c-11.934,0-24.577,0-24.577,0
		s-7.917-0.591-7.917,5.79c0,6.38,11.107,10.162,11.107,10.162l24.813,8.744c0,0,25.521,8.034,26.231,31.193
		c0,9.217-8.153,24.695-25.05,24.695s-60.379,0-60.379,0v-20.087c0,0,49.626,0,54.353,0s6.381-3.072,6.381-5.671
		c0-9.216-17.133-12.407-27.886-15.715c-3.571-1.099-34.62-5.791-34.62-31.312c0-12.171,7.208-28.713,30.84-28.713
		c23.631,0,46.317,0,46.317,0S570.917,68.616,549.826,68.616z M460.853,37.541c0,0,0-16.07,0-24.341
		c21.388,0,25.05,15.951,25.05,21.504c0,5.554,0,9.808,0,14.652C475.859,36.713,460.853,37.541,460.853,37.541z M445.256,128.641
		c5.554,0,6.854,0,6.854,0s-0.118,15.361-0.118,20.678c-20.678,0-45.491-2.717-45.491-32.375c0-29.658,0-103.625,0-103.625
		s24.932-0.118,24.932,24.223c0,4.253,0,10.043,0,10.043h20.56v21.504h-20.678c0,0,0,40.883,0,46.2
		C431.313,120.606,438.64,128.641,445.256,128.641z M352.935,151.8c-12.209,0-41.552-5.711-41.552-33.084
		c0-43.128,61.836-21.663,61.836-43.521c0-14.967-36.038-9.847-36.038-1.576c-6.499,0-25.01-0.394-25.01-0.394
		s3.544-27.177,45.884-27.177c37.812,0,39.505,27.768,39.505,27.768s0,14.179,0,43.521C397.56,125.647,388.895,151.8,352.935,151.8z
		 M373.021,98.038c-9.255,9.374-37.811,0.828-37.811,20.284c0,10.832,9.847,13.786,16.148,13.786
		c19.496,0,21.662-17.527,21.662-17.527S373.021,106.899,373.021,98.038z M266.285,72.24l-34.857,77l-35.053-76.803l-14.179,77.394
		l-27.374-1.182l23.434-133.322h21.269l30.13,75.818l2.954,0.197l31.312-75.228h20.087l23.238,133.125H280.07L266.285,72.24z
		 M107.917,86.458l11.225,62.742H70.816L107.917,86.458z M20.516,15.327h98.268L69.946,96.462L20.516,15.327z M68.922,149.2H20.595
		l11.225-62.742L68.922,149.2z M485.784,69.798c0,8.625,0,79.167,0,79.167h-24.459c0,0,0-85.074,0-101.38
		C477.396,47.584,485.784,55.855,485.784,69.798z"/>
</g>
</svg>
