<?xml version="1.0" encoding="utf-8"?>
<!-- Generator: Adobe Illustrator 16.0.0, SVG Export Plug-In . SVG Version: 6.00 Build 0)  -->
<!DOCTYPE svg PUBLIC "-//W3C//DTD SVG 1.1//EN" "http://www.w3.org/Graphics/SVG/1.1/DTD/svg11.dtd">
<svg version="1.1" id="Layer_1" xmlns="http://www.w3.org/2000/svg" xmlns:xlink="http://www.w3.org/1999/xlink" x="0px" y="0px"
	 width="516px" height="77px" viewBox="14.319 32.983 516 77" enable-background="new 14.319 32.983 516 77" xml:space="preserve">
<path fill="#80298F" d="M57.881,104.075L57.881,104.075l17.3-39.193l6.746,39.193H96.26L84.356,36.264H73.65L57.88,74.678
	L42.113,36.264H31.412l-11.903,67.811h14.329l6.745-39.193L57.881,104.075z M171.261,52.395L171.261,52.395
	c6.891,0,12.971,3.464,12.971,11.172c0,31.094,0,13.693,0,40.508h-12.971V52.395z M167.773,104.075L167.773,104.075
	c-15.06-0.037-23.64-2.554-23.64-21.23c0-38.274,0-13.942,0-47.257c4.943,0,12.899,1.152,12.899,11.996v4.71h9.438h1.333
	l-0.005,11.32h-1.328h-9.438v19.844c0,8.336,4.615,9.301,10.739,9.301L167.773,104.075L167.773,104.075z M128.066,78.145
	L128.066,78.145c-3.733,1.833-7.905,2.57-11.937,3.465c-3.593,1-6.351,2.609-6.351,6.729c0,4.174,3.67,6.154,7.619,6.154
	c7.666,0,10.667-5.15,10.667-11.535L128.066,78.145L128.066,78.145z M97.288,88.717L97.288,88.717
	c0-13.055,11.188-15.676,22.109-16.926c5.647-0.771,8.474-2.43,8.474-5.006c0-4.061-5.418-4.613-8.474-4.613
	c-3.031,0-7.46,0.6-8.847,3.661H97.667c1.304-10.246,11.866-14.249,21.158-14.249c8.504,0,19.185,2.195,21.341,12.506
	c0.29,1.416,0.393,2.681,0.393,3.987v15.448c0,15.153-8.399,20.521-21.008,21.268C109.181,105.409,97.288,101.25,97.288,88.717z
	 M187.7,104.077L187.7,104.077v-11.32h26.851c4.888,0,4.068-4.285,0.446-5.782c-5.698-2.804-15.517-4.671-21.26-8.048
	c-5.16-3.03-6.917-6.864-6.936-12.169c-0.026-7.533,5.049-14.461,17.794-14.461h21.202c0.18,6.632-3.385,11.258-9.486,11.24h-12.533
	c-2.766,0-4.11,1.36-4.059,2.859c0.034,0.913,1.169,2.213,2.307,2.8c7.906,4.088,17.865,5.053,24.201,11.367
	c2.381,2.374,4.337,5.223,4.268,9.456c-0.105,6.657-2.356,14.058-17.139,14.058H187.7z M171.242,35.586L171.242,35.586v12.76
	c4.654,0,10.857,1.541,12.989,5.753v-7.608C184.231,38.771,179.362,35.586,171.242,35.586z M491.221,46.934
	c0.666-0.17,1.604-0.308,2.832-0.427c1.213-0.119,2.699-0.188,4.441-0.188c2.92,0,5.412,0.445,7.514,1.349
	c2.08,0.889,3.705,2.221,4.813,3.961c1.129,1.742,1.691,3.911,1.709,6.473c-0.018,2.698-0.615,5.002-1.828,6.897
	c-1.213,1.879-2.951,3.313-5.207,4.303c-2.271,0.99-4.971,1.505-8.127,1.505c-1.281,0-2.426-0.035-3.467-0.104
	c-1.023-0.069-1.914-0.207-2.682-0.411V46.934H491.221z M478.721,106.252h12.5V80.229c0.818,0.156,1.76,0.255,2.799,0.324
	c1.041,0.054,2.17,0.088,3.348,0.088c2.988,0,5.822-0.273,8.504-0.807c2.68-0.524,5.154-1.347,7.408-2.422
	c2.256-1.092,4.221-2.476,5.91-4.148c1.945-1.863,3.432-4.115,4.438-6.763c0.99-2.646,1.502-5.618,1.502-8.914
	c-0.016-3.244-0.631-6.181-1.844-8.793c-1.193-2.595-2.832-4.764-4.916-6.472c-2.203-1.845-5.004-3.244-8.383-4.2
	c-3.398-0.957-7.396-1.435-12.006-1.435c-4.234,0-7.957,0.136-11.133,0.41c-3.176,0.256-5.891,0.598-8.127,1.024V106.252
	L478.721,106.252z M417.272,37.201v39.546c0.018,5.414,0.631,10.072,1.859,13.951c1.248,3.875,3.008,7.053,5.313,9.51
	s5.068,4.267,8.297,5.445c3.227,1.163,6.846,1.743,10.859,1.727c4.164,0,7.939-0.598,11.303-1.81
	c3.381-1.214,6.285-3.058,8.709-5.569c2.408-2.508,4.27-5.687,5.584-9.56c1.297-3.878,1.945-8.469,1.963-13.796V37.201h-12.6v40.263
	c0,4.51-0.6,8.213-1.746,11.133c-1.158,2.92-2.814,5.107-4.982,6.525c-2.17,1.414-4.766,2.114-7.82,2.114
	c-2.854,0-5.328-0.7-7.445-2.114c-2.115-1.418-3.756-3.605-4.918-6.525c-1.158-2.92-1.76-6.623-1.773-11.133V37.201H417.272z
	 M381.026,46.216c2.525,0.02,4.797,0.479,6.83,1.383c2.014,0.904,3.791,2.17,5.324,3.774c1.521,1.604,2.803,3.483,3.826,5.618
	s1.793,4.439,2.305,6.898c0.514,2.476,0.77,5.02,0.77,7.632c0,3.637-0.428,7.001-1.262,10.107c-0.838,3.107-2.068,5.838-3.689,8.164
	c-1.625,2.34-3.619,4.147-5.977,5.461c-2.371,1.3-5.07,1.966-8.127,1.981c-3.023-0.017-5.723-0.683-8.096-1.963
	c-2.375-1.282-4.369-3.071-6.025-5.377c-1.643-2.291-2.887-4.955-3.74-8.013c-0.854-3.037-1.297-6.315-1.297-9.85
	c0-3.587,0.41-6.934,1.229-10.041c0.82-3.109,2.051-5.859,3.656-8.213c1.619-2.357,3.617-4.201,6.008-5.533
	C375.153,46.917,377.899,46.235,381.026,46.216z M381.331,36.076c-4.881,0.016-9.322,0.904-13.334,2.663
	c-3.996,1.758-7.461,4.251-10.348,7.462c-2.904,3.227-5.141,7.035-6.711,11.44c-1.57,4.404-2.371,9.271-2.393,14.6
	c0.021,5.088,0.752,9.782,2.223,14.051c1.471,4.27,3.604,7.976,6.369,11.115c2.766,3.16,6.096,5.604,9.988,7.326
	c3.91,1.742,8.297,2.629,13.182,2.646c4.783-0.019,9.188-0.821,13.217-2.426c4.012-1.604,7.512-3.979,10.484-7.086
	c2.953-3.105,5.258-6.898,6.896-11.404c1.641-4.51,2.477-9.666,2.496-15.454c0-4.951-0.738-9.528-2.174-13.763
	c-1.434-4.217-3.533-7.923-6.301-11.081c-2.748-3.159-6.109-5.635-10.07-7.394C390.897,36.998,386.385,36.109,381.331,36.076z
	 M313.223,46.831c0.613-0.169,1.572-0.307,2.854-0.426c1.299-0.119,2.938-0.188,4.936-0.188c2.75,0,5.139,0.396,7.154,1.179
	c2.014,0.802,3.588,2.015,4.678,3.653c1.111,1.622,1.672,3.705,1.691,6.232c-0.021,2.305-0.58,4.303-1.691,5.993
	c-1.125,1.708-2.715,3.021-4.781,3.962c-2.051,0.922-4.508,1.399-7.357,1.417h-7.48V46.831H313.223z M300.724,106.252h12.499V77.875
	h6.355c2.371,0.049,4.369,0.441,5.973,1.213c1.605,0.768,2.92,2.031,3.945,3.771c1.025,1.761,1.844,4.116,2.477,7.104
	c0.988,4.32,1.861,7.854,2.646,10.604c0.803,2.748,1.451,4.645,1.963,5.688h13.012c-0.357-0.684-0.732-1.656-1.145-2.922
	c-0.408-1.281-0.855-2.766-1.297-4.49c-0.463-1.705-0.939-3.567-1.438-5.584c-0.49-2.014-1.006-4.098-1.553-6.266
	c-0.854-3.348-2.064-6.182-3.617-8.47c-1.572-2.288-3.57-3.91-6.012-4.851v-0.305c1.623-0.601,3.191-1.402,4.678-2.444
	s2.818-2.288,3.996-3.756c1.18-1.469,2.102-3.125,2.783-4.985c0.684-1.862,1.025-3.894,1.043-6.131
	c-0.018-2.937-0.531-5.565-1.557-7.922c-1.023-2.339-2.475-4.303-4.387-5.907c-2.289-1.932-5.176-3.348-8.658-4.234
	c-3.48-0.871-7.699-1.316-12.652-1.299c-2.441,0-4.813,0.068-7.119,0.188c-2.322,0.119-4.49,0.289-6.523,0.512
	c-2.014,0.206-3.825,0.461-5.413,0.734V106.252z M294.7,68.142h-24.382v9.938h12.19V95.29c-0.836,0.428-2.064,0.771-3.688,1.026
	c-1.621,0.272-3.568,0.407-5.84,0.407c-3.604,0-6.864-0.579-9.801-1.705c-2.921-1.128-5.448-2.768-7.564-4.92
	c-2.117-2.15-3.739-4.764-4.884-7.854s-1.708-6.592-1.725-10.519c0.017-4.028,0.632-7.579,1.844-10.654
	c1.213-3.09,2.938-5.685,5.174-7.77c2.236-2.1,4.884-3.688,7.939-4.764c3.057-1.058,6.438-1.604,10.144-1.604
	c2.407,0,4.557,0.137,6.453,0.411c1.896,0.254,3.588,0.613,5.087,1.058c1.504,0.443,2.888,0.938,4.134,1.502l2.768-10.142
	c-1.076-0.529-2.494-1.042-4.271-1.537c-1.792-0.495-3.857-0.906-6.232-1.229c-2.371-0.326-4.982-0.495-7.836-0.514
	c-5.736,0.019-10.943,0.854-15.64,2.526c-4.695,1.676-8.741,4.081-12.142,7.225c-3.396,3.124-6.01,6.896-7.854,11.303
	c-1.826,4.388-2.768,9.322-2.783,14.802c-0.035,3.502,0.341,6.814,1.092,9.938c0.752,3.126,1.845,5.997,3.278,8.606
	c1.45,2.611,3.211,4.9,5.259,6.865c3.262,3.121,7.139,5.428,11.612,6.951c4.457,1.518,9.611,2.268,15.436,2.268
	c3.091-0.018,6.063-0.237,8.879-0.645c2.836-0.414,5.397-0.908,7.683-1.505c2.291-0.601,4.184-1.18,5.67-1.741V68.142L294.7,68.142z
	"/>
</svg>
