<?xml version="1.0" encoding="utf-8"?>
<!-- Generator: Adobe Illustrator 16.0.0, SVG Export Plug-In . SVG Version: 6.00 Build 0)  -->
<!DOCTYPE svg PUBLIC "-//W3C//DTD SVG 1.1//EN" "http://www.w3.org/Graphics/SVG/1.1/DTD/svg11.dtd">
<svg version="1.1" id="Layer_1" xmlns="http://www.w3.org/2000/svg" xmlns:xlink="http://www.w3.org/1999/xlink" x="0px" y="0px"
	 width="503.159px" height="82px" viewBox="16.491 12.756 503.159 82" enable-background="new 16.491 12.756 503.159 82"
	 xml:space="preserve">
<path fill="#FFFFFF" d="M481.783,84.032c6.726-10.427,1.25-25.478-4.937-30.882c-6.765-5.907-17.183-7.114-24.293-4.906
	c-12.5,3.432-10.73,19.238,0.514,26.652c4.008,2.648,13.744,3.979,16.916,0.008c3.634-4.547,3.431-10.449-0.082-12.59
	c-3.361-2.049-14.302-2.465-14.302,2.27c5.014,0,13.276-3.938,12.572,4.005c-0.854,9.732-16.091,3.091-16.648-0.339
	c-0.511-3.112-1.898-7.325,0.535-10.57c6.229-8.29,19.146-3.809,25.444,1.959c6.844,6.271,5.781,19.762-1.45,23.863l-0.692,0.394
	c-12.453,7.061-26.643,5.955-36.867-5.33c-6.986,11.088-22.929,14.313-16.668,8.075c8.915-8.882,5.52-27.202-1.678-33.489
	c-6.766-5.908-17.186-7.113-24.293-4.905C383.775,52,384.971,67.383,396.37,74.897c4.006,2.649,13.742,3.979,16.913,0.008
	c3.637-4.546,3.434-10.448-0.082-12.589c-3.356-2.049-14.299-2.464-14.299,2.27c5.011,0,13.273-3.938,12.572,4.006
	c-0.859,9.731-16.096,3.09-16.653-0.339c-0.508-3.113-1.896-7.326,0.541-10.572c6.229-8.29,19.146-3.808,25.442,1.96
	c6.843,6.271,5.778,19.762-1.454,23.863l-0.689,0.395c-13.494,7.646-29.025,5.708-39.341-8.376
	c-5.664,13.509-25.056,17.896-18.262,11.122c8.92-8.883,5.52-27.202-1.674-33.489c-6.77-5.909-17.184-7.113-24.293-4.906
	c-12.085,3.754-10.884,19.136,0.514,26.653c4.01,2.648,13.742,3.979,16.916,0.007c3.634-4.547,3.431-10.448-0.08-12.589
	c-3.362-2.05-14.303-2.464-14.303,2.27c5.011,0,13.276-3.938,12.57,4.006c-0.854,9.731-16.09,3.09-16.647-0.339
	c-0.508-3.113-1.901-7.325,0.535-10.572c6.23-8.29,19.146-3.809,25.44,1.96c6.844,6.271,5.785,19.762-1.446,23.863l-0.692,0.394
	c-13.601,7.71-29.27,5.682-39.583-8.705c-0.969-1.35-1.771-2.7-2.424-4.062l-4.129,10.491l2.976,9.029l-12.445,4.101l-14.741-44.73
	l-8.625,26.168l3.53,6.797l-6.96,3.612l-1.725,5.229l-12.443-4.103l3.426-10.392l-29.047-55.923l11.628-6.042l23.151,44.568
	l10.169-30.854l-2.206-6.697l4.95-1.631l1.774-5.395l12.445,4.103l-3.167,9.618l10.895,33.061l18.706-47.543l12.193,4.798
	l-7.231,18.38c6.064-2.71,14.347-2.873,21.341-2.215c7.346,0.689,19.309,6.184,25.889,17.123
	c6.431-15.36,19.332-18.582,34.872-17.123c6.547,0.615,16.743,5.037,23.543,13.719c7.757-13.102,18.587-15.088,33.158-13.719
	c6.938,0.648,17.977,5.585,24.732,15.334l14.915-38.146l12.186,5.223l-18.998,50.156C493.598,88.452,474.356,91.177,481.783,84.032
	 M174.941,16.002L174.941,16.002v13.321c4.863,0,11.338,1.611,13.565,6.008v-7.943C188.506,19.327,183.421,16.002,174.941,16.002z
	 M192.125,87.524L192.125,87.524v-11.82h28.042c5.102,0,4.247-4.474,0.465-6.039c-5.951-2.931-16.205-4.878-22.201-8.403
	c-5.387-3.167-7.222-7.17-7.241-12.708c-0.029-7.87,5.271-15.102,18.58-15.102h22.139c0.19,6.923-3.534,11.754-9.905,11.736h-13.088
	c-2.888,0-4.292,1.418-4.236,2.985c0.036,0.954,1.221,2.311,2.407,2.925c8.257,4.271,18.656,5.276,25.274,11.871
	c2.485,2.476,4.527,5.456,4.454,9.873c-0.11,6.951-2.461,14.683-17.896,14.683H192.125L192.125,87.524z M97.712,71.481
	L97.712,71.481c0-13.626,11.685-16.368,23.092-17.669c5.898-0.809,8.846-2.538,8.846-5.229c0-4.238-5.659-4.815-8.846-4.815
	c-3.167,0-7.792,0.624-9.239,3.822H98.109c1.363-10.697,12.394-14.88,22.095-14.88c8.881,0,20.033,2.292,22.285,13.058
	c0.304,1.482,0.41,2.797,0.41,4.166v16.13c0,15.826-8.771,21.43-21.937,22.209C110.134,88.911,97.712,84.571,97.712,71.481z
	 M129.856,60.445L129.856,60.445c-3.901,1.915-8.256,2.686-12.464,3.614c-3.751,1.046-6.633,2.73-6.633,7.028
	c0,4.358,3.834,6.43,7.958,6.43c8.008,0,11.14-5.384,11.14-12.052V60.445z M171.32,87.52L171.32,87.52
	c-15.727-0.038-24.688-2.662-24.688-22.17c0-39.967,0-14.56,0-49.347c5.161,0,13.471,1.204,13.471,12.529v4.917h9.856h1.394
	l-0.005,11.821h-1.389h-9.856v20.722c0,8.699,4.82,9.712,11.216,9.712L171.32,87.52L171.32,87.52z M174.96,33.555L174.96,33.555
	c7.196,0,13.545,3.617,13.545,11.667c0,32.467,0,14.297,0,42.298H174.96V33.555z M56.564,87.52L56.564,87.52l18.064-40.924
	l7.048,40.924h14.968l-12.433-70.81H73.032L56.564,56.823L40.099,16.709H28.922L16.491,87.52h14.964L38.5,46.595L56.564,87.52z"/>
</svg>
