<?xml version="1.0" encoding="utf-8"?>
<!-- Generator: Adobe Illustrator 16.0.0, SVG Export Plug-In . SVG Version: 6.00 Build 0)  -->
<!DOCTYPE svg PUBLIC "-//W3C//DTD SVG 1.1//EN" "http://www.w3.org/Graphics/SVG/1.1/DTD/svg11.dtd">
<svg version="1.1" id="Layer_1" xmlns="http://www.w3.org/2000/svg" xmlns:xlink="http://www.w3.org/1999/xlink" x="0px" y="0px"
	 width="329.524px" height="73px" viewBox="26.487 25.564 329.524 73" enable-background="new 26.487 25.564 329.524 73"
	 xml:space="preserve">
<g>
	<path fill="#FFFFFF" d="M292.697,70L292.697,70c-3.899,1.914-8.256,2.683-12.463,3.615c-3.751,1.045-6.63,2.725-6.63,7.026
		c0,4.355,3.833,6.426,7.958,6.426c8.005,0,11.136-5.38,11.136-12.045L292.697,70L292.697,70z M260.563,81.036L260.563,81.036
		c0-13.63,11.679-16.366,23.082-17.668c5.898-0.809,8.845-2.538,8.845-5.229c0-4.24-5.653-4.816-8.845-4.816
		c-3.165,0-7.785,0.625-9.235,3.821h-13.453c1.366-10.694,12.392-14.877,22.09-14.877c8.881,0,20.033,2.293,22.283,13.059
		c0.306,1.479,0.408,2.796,0.408,4.163v16.132c0,15.818-8.768,21.42-21.934,22.204C272.979,98.46,260.563,94.118,260.563,81.036z"/>
	<path fill="#FFFFFF" d="M184.911,25.564L184.911,25.564v13.321c4.862,0,11.339,1.61,13.563,6.006v-7.944
		C198.474,28.889,193.389,25.564,184.911,25.564"/>
	<path fill="#FFFFFF" d="M139.832,70L139.832,70c-3.898,1.914-8.254,2.683-12.461,3.615c-3.75,1.045-6.631,2.725-6.631,7.026
		c0,4.355,3.833,6.426,7.956,6.426c8.006,0,11.137-5.38,11.137-12.045L139.832,70L139.832,70z M107.697,81.036L107.697,81.036
		c0-13.63,11.682-16.366,23.085-17.668c5.897-0.809,8.846-2.541,8.846-5.229c0-4.238-5.657-4.816-8.846-4.816
		c-3.165,0-7.788,0.625-9.237,3.821h-13.452c1.362-10.695,12.39-14.875,22.089-14.875c8.88,0,20.031,2.291,22.284,13.055
		c0.303,1.48,0.411,2.798,0.411,4.165v16.132c0,15.818-8.771,21.42-21.934,22.204C120.114,98.46,107.697,94.118,107.697,81.036z"/>
	<path fill="#FFFFFF" d="M181.291,97.069L181.291,97.069c-15.724-0.038-24.681-2.663-24.681-22.166c0-39.96,0-14.554,0-49.339
		c5.158,0,13.467,1.203,13.467,12.525v4.919h9.857h1.386v11.819h-1.386h-9.857v20.716c0,8.705,4.819,9.708,11.214,9.708V97.069
		L181.291,97.069z"/>
	<path fill="#FFFFFF" d="M184.932,43.114L184.932,43.114c7.194,0,13.542,3.615,13.542,11.663c0,32.464,0,14.298,0,42.292h-13.542
		V43.114z"/>
	<polygon fill="#FFFFFF" points="66.555,97.069 66.555,97.069 84.615,56.15 91.66,97.069 106.625,97.069 94.195,26.272 
		83.019,26.272 66.555,66.378 50.09,26.272 38.917,26.272 26.487,97.069 41.448,97.069 48.495,56.15 	"/>
	<path fill="#FFFFFF" d="M356.012,97.792v-0.208V73.985c0-24.844-9.488-30.968-28.084-30.968h-18.634v54.052h13.502V54.869h5.184
		c10.024,0,14.526,6.235,14.526,17.121V85.06C342.507,91.164,344.875,97.754,356.012,97.792"/>
	<path fill="#FFFFFF" d="M201.229,75.371h14.108c0.552,4.023,2.082,6.863,4.647,8.463c2.68,1.894,6.382,2.821,11.078,2.821
		c4.179,0,7.33-0.737,9.484-2.219c2.148-1.478,3.234-3.628,3.234-6.451c0-14.073-41.539-5.368-41.539-31.455
		c0-15.94,12.887-20.957,26.809-20.957c14.405,0,25.587,6.439,26.22,21.973h-8.068c-3.096,0-5.32-1.411-6.656-4.233
		c-2.417-4.826-7.743-6.057-12.702-6.057c-5.624,0-11.698,1.746-11.698,8.465c0,3.631,3.906,6.332,11.698,8.07
		c6.167,1.809,10.395,2.62,16.626,4.808c4.685,1.645,8.575,3.365,10.994,8.1c1.476,2.818,2.218,5.913,2.218,9.272
		c0,7.258-2.41,12.903-7.262,16.946c-4.833,3.752-11.679,5.646-20.558,5.646c-9.14,0-16.007-1.961-20.562-5.854
		C204.325,88.806,201.625,83.023,201.229,75.371"/>
</g>
</svg>
