<?xml version="1.0" encoding="utf-8"?>
<!-- Generator: Adobe Illustrator 16.0.0, SVG Export Plug-In . SVG Version: 6.00 Build 0)  -->
<!DOCTYPE svg PUBLIC "-//W3C//DTD SVG 1.1//EN" "http://www.w3.org/Graphics/SVG/1.1/DTD/svg11.dtd">
<svg version="1.1" id="Layer_1" xmlns="http://www.w3.org/2000/svg" xmlns:xlink="http://www.w3.org/1999/xlink" x="0px" y="0px"
	 width="471px" height="123px" viewBox="39.339 33.467 471 123" enable-background="new 39.339 33.467 471 123"
	 xml:space="preserve">
<path fill="#FFFFFF" d="M407.941,36.957L407.941,36.957v21.368c7.799,0,18.188,2.583,21.758,9.639V55.218
	C429.699,42.286,421.543,36.957,407.941,36.957 M435.508,151.677L435.508,151.677v-18.955h44.976c8.188,0,6.817-7.184,0.748-9.688
	c-9.544-4.697-25.991-7.825-35.606-13.48c-8.646-5.075-11.585-11.5-11.616-20.384c-0.042-12.619,8.456-24.226,29.806-24.226h35.512
	c0.305,11.104-5.666,18.855-15.882,18.828h-20.999c-4.636,0-6.89,2.276-6.793,4.789c0.053,1.529,1.953,3.707,3.857,4.688
	c13.243,6.852,29.925,8.462,40.541,19.041c3.98,3.977,7.256,8.751,7.142,15.839c-0.176,11.152-3.949,23.548-28.703,23.548
	L435.508,151.677L435.508,151.677z M284.062,125.95L284.062,125.95c0-21.863,18.746-26.256,37.039-28.352
	c9.464-1.295,14.19-4.064,14.19-8.387c0-6.8-9.072-7.726-14.19-7.726c-5.074,0-12.488,1.004-14.815,6.13H284.7
	c2.186-17.156,19.878-23.867,35.441-23.867c14.243,0,32.133,3.678,35.743,20.946c0.489,2.378,0.663,4.492,0.663,6.683v25.881
	c0,25.381-14.069,34.363-35.188,35.617C303.987,153.906,284.062,146.938,284.062,125.95z M335.623,108.241L335.623,108.241
	c-6.256,3.069-13.248,4.308-19.993,5.803c-6.019,1.681-10.643,4.376-10.643,11.273c0,6.992,6.148,10.311,12.765,10.311
	c12.848,0,17.871-8.636,17.871-19.33V108.241z M402.134,151.672L402.134,151.672c-25.228-0.063-39.604-4.271-39.604-35.561
	c0-64.111,0-23.357,0-79.155c8.282,0,21.608,1.927,21.608,20.094v7.892h15.813h2.23L402.181,83.9h-2.227h-15.813v33.24
	c0,13.959,7.73,15.581,17.993,15.581V151.672L402.134,151.672z M407.974,65.11L407.974,65.11c11.542,0,21.728,5.801,21.728,18.713
	c0,52.079,0,22.938,0,67.851h-21.728V65.11z M218.06,151.672L218.06,151.672l28.974-65.646l11.303,65.646h24.01L262.404,38.089
	h-17.933l-26.412,64.345l-26.413-64.345H173.72l-19.938,113.583h24.001l11.3-65.646L218.06,151.672z M84.235,107.373l41.383-69.283
	H42.666L84.235,107.373z M115.74,97.583l10.064,54.089H84.235L115.74,97.583z M52.636,97.583l31.6,54.089h-41.75L52.636,97.583z"/>
</svg>
