<?xml version="1.0" encoding="utf-8"?>
<!-- Generator: Adobe Illustrator 16.0.0, SVG Export Plug-In . SVG Version: 6.00 Build 0)  -->
<!DOCTYPE svg PUBLIC "-//W3C//DTD SVG 1.1//EN" "http://www.w3.org/Graphics/SVG/1.1/DTD/svg11.dtd">
<svg version="1.1" id="Layer_1" xmlns="http://www.w3.org/2000/svg" xmlns:xlink="http://www.w3.org/1999/xlink" x="0px" y="0px"
	 width="511px" height="103px" viewBox="27.373 21.99 511 103" enable-background="new 27.373 21.99 511 103" xml:space="preserve">
<g>
	<path fill="#FFFFFF" d="M182.573,41.647L182.573,41.647v12.938c4.722,0,11.01,1.563,13.172,5.834v-7.714
		C195.745,44.876,190.807,41.647,182.573,41.647 M199.259,111.091L199.259,111.091V99.615h27.227c4.957,0,4.126-4.346,0.453-5.865
		c-5.777-2.84-15.735-4.736-21.557-8.156c-5.23-3.075-7.012-6.962-7.03-12.34c-0.028-7.64,5.118-14.664,18.042-14.664h21.497
		c0.184,6.723-3.432,11.414-9.616,11.395h-12.709c-2.804,0-4.168,1.381-4.113,2.899c0.033,0.925,1.184,2.245,2.336,2.84
		c8.018,4.146,18.114,5.123,24.54,11.526c2.413,2.401,4.396,5.295,4.324,9.587c-0.106,6.753-2.389,14.253-17.375,14.253
		L199.259,111.091L199.259,111.091z M107.586,95.52L107.586,95.52c0-13.233,11.346-15.896,22.419-17.164
		c5.728-0.777,8.591-2.46,8.591-5.073c0-4.116-5.494-4.679-8.591-4.679c-3.074,0-7.564,0.608-8.97,3.712h-13.064
		c1.323-10.385,12.034-14.444,21.452-14.444c8.625,0,19.452,2.226,21.64,12.679c0.296,1.438,0.399,2.717,0.399,4.042v15.667
		c0,15.365-8.519,20.806-21.3,21.563C119.645,112.441,107.586,108.226,107.586,95.52z M138.796,84.798L138.796,84.798
		c-3.787,1.86-8.017,2.604-12.104,3.513c-3.641,1.016-6.438,2.646-6.438,6.822c0,4.235,3.722,6.241,7.726,6.241
		c7.775,0,10.816-5.229,10.816-11.701V84.798L138.796,84.798z M179.057,111.091L179.057,111.091
		c-15.269-0.038-23.971-2.587-23.971-21.528c0-38.808,0-14.136,0-47.916c5.012,0,13.08,1.168,13.08,12.164v4.776h9.572h1.352
		l-0.005,11.479h-1.347h-9.572v20.121c0,8.452,4.681,9.431,10.891,9.431V111.091z M182.593,58.69L182.593,58.69
		c6.985,0,13.151,3.513,13.151,11.329c0,31.523,0,13.882,0,41.072h-13.151V58.69z M67.631,111.091L67.631,111.091l17.541-39.739
		l6.841,39.739h14.534l-12.07-68.757H83.621l-15.99,38.949l-15.987-38.95H40.791L28.722,111.09H43.25l6.841-39.739L67.631,111.091z"
		/>
	<path fill="#FFFFFF" d="M427.39,95.449h4.748l-4.547-68.081h-5.756l-15.252,39.294c-3.437,9.19-5.859,15.757-7.576,22.021h-0.305
		c-1.918-6.567-4.242-13.436-7.476-22.021l-14.646-39.294h-5.555l-4.949,68.081h4.746l2.125-31.313
		c0.805-11.313,1.313-23.131,1.512-31.11h0.203c2.02,7.477,4.947,15.656,8.787,26.265l13.432,36.16h3.336L414.56,58.48
		c3.943-10.203,6.673-18.081,9.193-25.455h0.203c0,7.477,0.809,20,1.414,30.202L427.39,95.449z"/>
	<path fill="#FFFFFF" d="M441.011,66.865c0.91-7.478,5.455-16.972,16.162-16.972c11.717,0,14.545,10.202,14.443,16.972H441.011z
		 M476.466,70.702c0.203-0.908,0.203-1.615,0.203-2.93c0-6.97-3.031-21.92-18.889-21.92c-12.527,0-21.82,10.104-21.82,26.265
		c0,14.238,8.689,24.344,22.627,24.344c8.486,0,13.437-2.121,15.254-3.133l-1.215-3.737c-2.729,1.313-6.361,2.727-13.432,2.727
		c-10.002,0-18.488-6.158-18.488-21.614L476.466,70.702L476.466,70.702z"/>
	<path fill="#FFFFFF" d="M486.453,67.067c0-1.717,0.305-3.029,0.604-4.241c2.324-8.081,9.089-12.932,16.162-12.932
		c11.011,0,17.07,9.797,17.07,20.909c0,12.625-6.365,21.718-17.475,21.718c-7.576,0-13.843-4.848-15.957-12.225
		c-0.308-1.211-0.406-2.422-0.406-3.531L486.453,67.067L486.453,67.067z M481.603,84.139c0,3.633-0.102,7.878-0.401,11.313h4.344
		l0.402-8.688h0.203c3.84,6.565,9.491,9.796,17.373,9.796c10.604,0,21.614-8.585,21.614-25.855c0-14.545-8.483-24.85-20.705-24.85
		c-8.588,0-14.547,3.94-17.774,10.202h-0.203V23.633h-4.852L481.603,84.139L481.603,84.139z"/>
	<rect x="530.175" y="23.633" fill="#FFFFFF" width="4.851" height="71.816"/>
	<path fill="#FFFFFF" d="M333.5,96.762V80.626c0-8.729-4.934-11.719-10.912-14.021l-10.709-4.116V46.817
		c0-5.935-1.789-10.52-9.123-12.626l-8.736-2.509l-47.999,6.417l7.401,2.69c6.947,3.313,8.553,7.551,8.366,14.674
		c-0.095,3.7,10.581,15.325,13.44,14.467c0.318-0.064,0.646-0.122,0.976-0.2c1.907,6.908,3.829,13.819,5.802,20.725
		c1.977,6.93,4.254,14.301,6.301,21.246L333.5,96.762z"/>
	<path fill="#FFFFFF" d="M246.829,58.509l14.979-2.693l15.869,6.718c12.177,5.149,12.649,19.283,12.649,30.396v25.029l-15.521,5.389
		V97.272c0-10.846-0.172-24.146-13.264-31.026L246.829,58.509z"/>
	<path fill="#FFFFFF" d="M311.878,46.817l16.719-3.003l14.14,4.59c10.768,3.498,11.752,12.279,11.752,25.481v21.767l-12.563,4.342
		V78.222c0-9.438,0-21.644-12.719-25.776L311.878,46.817z"/>
</g>
</svg>
